<?xml version="1.0" encoding="UTF-8"?>
<svg width="52px" height="52px" viewBox="0 0 52 52" version="1.1" xmlns="http://www.w3.org/2000/svg" xmlns:xlink="http://www.w3.org/1999/xlink">
    <!-- Generator: Sketch 52.1 (67048) - http://www.bohemiancoding.com/sketch -->
    <title>Group</title>
    <desc>Created with Sketch.</desc>
    <g id="Page-1" stroke="none" stroke-width="1" fill="none" fill-rule="evenodd">
        <g id="Home" transform="translate(-774.000000, -1640.000000)">
            <g id="Footer" transform="translate(0.000000, 1574.000000)">
                <g id="Group" transform="translate(774.000000, 66.000000)">
                    <circle id="Oval" fill="#2D2D2D" cx="26" cy="26" r="26"></circle>
                    <g id="iconmonstr-github-1" transform="translate(11.440000, 11.440000)" fill="#FFFFFF">
                        <path d="M14.56,0 C6.52045333,0 0,6.51924 0,14.56 C0,20.9930933 4.17144,26.4506667 9.95782667,28.3762267 C10.6846133,28.5109067 10.92,28.0595467 10.92,27.6761333 L10.92,24.9655467 C6.86989333,25.8464267 6.02662667,23.2474667 6.02662667,23.2474667 C5.36414667,21.5645733 4.40925333,21.1168533 4.40925333,21.1168533 C3.08793333,20.21292 4.50996,20.2323333 4.50996,20.2323333 C5.97202667,20.3342533 6.74128,21.7332267 6.74128,21.7332267 C8.03954667,23.95848 10.1471067,23.3154133 10.97824,22.94292 C11.1080667,22.0025867 11.4854133,21.35952 11.9028,20.9967333 C8.66926667,20.6266667 5.26950667,19.3781467 5.26950667,13.8004533 C5.26950667,12.2097733 5.83856,10.9115067 6.76918667,9.89230667 C6.61873333,9.52466667 6.12005333,8.04318667 6.91114667,6.03876 C6.91114667,6.03876 8.13418667,5.64806667 10.91636,7.53116 C12.07752,7.20841333 13.3224,7.04704 14.56,7.04097333 C15.7976,7.04704 17.0436933,7.20841333 18.20728,7.53116 C20.9870267,5.64806667 22.20764,6.03876 22.20764,6.03876 C22.9999467,8.0444 22.5012667,9.52588 22.3508133,9.89230667 C23.28508,10.9115067 23.84928,12.2109867 23.84928,13.8004533 C23.84928,19.3927067 20.4434533,20.62424 17.2014267,20.9846 C17.72316,21.43596 18.2,22.3216933 18.2,23.6806267 L18.2,27.6761333 C18.2,28.0631867 18.43296,28.5181867 19.17188,28.3750133 C24.9534133,26.4470267 29.12,20.9906667 29.12,14.56 C29.12,6.51924 22.60076,0 14.56,0 Z" id="Path"></path>
                    </g>
                </g>
            </g>
        </g>
    </g>
</svg>