<?xml version="1.0" encoding="UTF-8"?>
<svg width="121px" height="26px" viewBox="0 0 121 26" version="1.1" xmlns="http://www.w3.org/2000/svg" xmlns:xlink="http://www.w3.org/1999/xlink">
    <!-- Generator: Sketch 52.1 (67048) - http://www.bohemiancoding.com/sketch -->
    <title>Larapress</title>
    <desc>Created with Sketch.</desc>
    <g id="Page-1" stroke="none" stroke-width="1" fill="none" fill-rule="evenodd">
        <g id="About" transform="translate(-162.000000, -711.000000)" fill="#000000">
            <path d="M175.132584,730 L162.998832,730 L162.998832,711.475617 L168.009987,711.475617 L168.009987,725.960108 L175.132584,725.960108 L175.132584,730 Z M190.602415,730 L187.181879,730 L186.224692,728.099702 L186.126158,728.099702 C185.478646,728.916131 184.800645,729.479176 184.092136,729.788856 C183.383626,730.098536 182.485099,730.253373 181.396528,730.253373 C180.035815,730.253373 178.97072,729.845165 178.201213,729.028737 C177.431706,728.212308 177.046958,727.076833 177.046958,725.622277 C177.046958,722.675628 179.11615,721.117869 183.254597,720.948953 L185.661641,720.864495 L185.661641,720.667427 C185.661641,719.485014 185.075135,718.893816 183.902106,718.893816 C182.86984,718.893816 181.541991,719.245719 179.918519,719.949537 L178.482739,716.68384 C180.162516,715.820491 182.273937,715.388822 184.817064,715.388822 C186.656374,715.388822 188.08041,715.848643 189.089215,716.768298 C190.09802,717.687953 190.602415,718.959497 190.602415,720.582969 L190.602415,730 Z M182.100342,725.439286 C182.100342,726.321403 182.569547,726.762456 183.50797,726.762456 C184.108561,726.762456 184.619994,726.574774 185.042285,726.199405 C185.464575,725.824035 185.675717,725.326678 185.675717,724.707319 L185.675717,723.595293 L184.535539,723.637522 C182.912066,723.712596 182.100342,724.313178 182.100342,725.439286 Z M202.637633,715.388822 C202.956697,715.388822 203.458746,715.440435 204.143795,715.543661 L203.707431,720.216986 C203.275756,720.113759 202.71271,720.062147 202.018277,720.062147 C199.953746,720.062147 198.921496,721.024016 198.921496,722.947784 L198.921496,730 L193.966646,730 L193.966646,715.642195 L197.654631,715.642195 L198.428826,717.936629 L198.668123,717.936629 C199.081029,717.167122 199.660497,716.550118 200.406543,716.085598 C201.15259,715.621079 201.896279,715.388822 202.637633,715.388822 Z M218.417142,730 L214.996607,730 L214.03942,728.099702 L213.940886,728.099702 C213.293374,728.916131 212.615373,729.479176 211.906863,729.788856 C211.198354,730.098536 210.299827,730.253373 209.211256,730.253373 C207.850542,730.253373 206.785448,729.845165 206.01594,729.028737 C205.246433,728.212308 204.861686,727.076833 204.861686,725.622277 C204.861686,722.675628 206.930878,721.117869 211.069325,720.948953 L213.476368,720.864495 L213.476368,720.667427 C213.476368,719.485014 212.889863,718.893816 211.716833,718.893816 C210.684568,718.893816 209.356719,719.245719 207.733247,719.949537 L206.297466,716.68384 C207.977244,715.820491 210.088664,715.388822 212.631792,715.388822 C214.471101,715.388822 215.895137,715.848643 216.903942,716.768298 C217.912747,717.687953 218.417142,718.959497 218.417142,720.582969 L218.417142,730 Z M209.91507,725.439286 C209.91507,726.321403 210.384274,726.762456 211.322698,726.762456 C211.923289,726.762456 212.434722,726.574774 212.857012,726.199405 C213.279303,725.824035 213.490445,725.326678 213.490445,724.707319 L213.490445,723.595293 L212.350266,723.637522 C210.726794,723.712596 209.91507,724.313178 209.91507,725.439286 Z M228.270538,730.253373 C226.149701,730.253373 224.606018,729.460417 223.639442,727.874482 L223.554984,727.874482 L223.583137,728.930203 C223.620674,729.493257 223.639442,730.178295 223.639442,730.98534 L223.639442,736.235792 L222.386653,736.235792 L222.386653,716.233399 L223.442374,716.233399 L223.681671,718.190002 L223.766128,718.190002 C224.713936,716.707293 226.224775,715.96595 228.29869,715.96595 C230.156768,715.96595 231.573766,716.575916 232.549727,717.795866 C233.525687,719.015816 234.01366,720.772988 234.01366,723.067433 C234.01366,725.361878 233.497534,727.137817 232.465269,728.395304 C231.433003,729.634023 230.034773,730.253373 228.270538,730.253373 Z M228.242385,729.141347 C229.65002,729.141347 230.740921,728.618184 231.51512,727.571842 C232.289319,726.5255 232.676413,725.059235 232.676413,723.173005 C232.676413,719.1284 231.217187,717.106128 228.29869,717.106128 C226.684602,717.106128 225.504553,717.549527 224.758506,718.436337 C224.01246,719.323147 223.639442,720.756567 223.639442,722.73664 L223.639442,723.144852 C223.639442,725.303226 224.000729,726.842217 224.723315,727.761872 C225.445901,728.681526 226.618913,729.141347 228.242385,729.141347 Z M243.247699,715.96595 C243.838905,715.96595 244.462947,716.022254 245.119844,716.134865 L244.880547,717.345425 C244.308109,717.204662 243.712219,717.134281 243.09286,717.134281 C241.910446,717.134281 240.946231,717.633984 240.200184,718.633405 C239.454138,719.632825 239.08112,720.887948 239.08112,722.398809 L239.08112,730 L237.828331,730 L237.828331,716.233399 L238.884052,716.233399 L239.010739,718.710824 L239.109273,718.710824 C239.662942,717.706711 240.263524,716.998212 240.911036,716.585306 C241.567933,716.1724 242.346812,715.96595 243.247699,715.96595 Z M256.507553,722.173589 C256.507553,720.587653 256.162688,719.341915 255.472947,718.436337 C254.783206,717.530758 253.79553,717.077976 252.50989,717.077976 C251.22425,717.077976 250.182616,717.516682 249.384956,718.394108 C248.587296,719.271534 248.122784,720.531348 247.991405,722.173589 L256.507553,722.173589 Z M252.960331,730.253373 C250.96149,730.253373 249.399038,729.638715 248.27293,728.40938 C247.156207,727.161277 246.597853,725.434605 246.597853,723.22931 C246.597853,721.024015 247.139784,719.262152 248.223663,717.943667 C249.307542,716.625182 250.764422,715.96595 252.594348,715.96595 C254.21782,715.96595 255.494057,716.533687 256.423096,717.66918 C257.361519,718.785903 257.830724,720.320202 257.830724,722.272123 L257.830724,723.285615 L247.921023,723.285615 C247.930407,725.171846 248.369114,726.61465 249.237155,727.614071 C250.105197,728.613492 251.346243,729.113194 252.960331,729.113194 C253.720454,729.113194 254.405493,729.059236 255.015468,728.951317 C255.625443,728.843399 256.385555,728.60645 257.295825,728.240465 L257.295825,729.380644 C256.545086,729.709092 255.836588,729.936656 255.170307,730.063343 C254.504026,730.19003 253.767375,730.253373 252.960331,730.253373 Z M268.472391,723.581217 C269.607883,724.294418 270.17562,725.253942 270.17562,726.459816 C270.17562,727.66569 269.708762,728.599407 268.775031,729.260995 C267.8413,729.922584 266.485298,730.253373 264.706986,730.253373 C262.928674,730.253373 261.495254,729.97185 260.406683,729.408796 L260.406683,728.043397 C261.795549,728.73783 263.205509,729.085042 264.636605,729.085042 C266.0677,729.085042 267.142179,728.864516 267.860073,728.423457 C268.577966,727.982398 268.936908,727.393546 268.936908,726.656884 C268.936908,725.920221 268.655385,725.321986 268.092331,724.862158 C267.529277,724.383562 266.593214,723.912012 265.284113,723.447492 C263.975013,722.982973 263.02722,722.563034 262.440705,722.187665 C261.854191,721.812296 261.424868,721.39705 261.152726,720.941914 C260.880583,720.486779 260.744513,719.940156 260.744513,719.302028 C260.744513,718.269762 261.178528,717.455692 262.046569,716.859793 C262.914611,716.263895 264.104045,715.96595 265.614906,715.96595 C267.125768,715.96595 268.556842,716.24278 269.908171,716.79645 L269.429578,717.936629 C268.068864,717.382959 266.82078,717.106128 265.685287,717.106128 C264.549795,717.106128 263.653614,717.291464 262.996718,717.662141 C262.339822,718.032819 262.011379,718.56302 262.011379,719.252761 C262.011379,719.942502 262.269441,720.503202 262.785574,720.934876 C263.301707,721.366551 264.233078,721.824025 265.579715,722.307313 C266.926353,722.790601 267.890568,723.215232 268.472391,723.581217 Z M280.563914,723.581217 C281.699407,724.294418 282.267144,725.253942 282.267144,726.459816 C282.267144,727.66569 281.800286,728.599407 280.866554,729.260995 C279.932823,729.922584 278.576822,730.253373 276.79851,730.253373 C275.020198,730.253373 273.586778,729.97185 272.498207,729.408796 L272.498207,728.043397 C273.887073,728.73783 275.297033,729.085042 276.728128,729.085042 C278.159224,729.085042 279.233702,728.864516 279.951596,728.423457 C280.66949,727.982398 281.028432,727.393546 281.028432,726.656884 C281.028432,725.920221 280.746909,725.321986 280.183855,724.862158 C279.620801,724.383562 278.684738,723.912012 277.375637,723.447492 C276.066537,722.982973 275.118743,722.563034 274.532229,722.187665 C273.945714,721.812296 273.516392,721.39705 273.244249,720.941914 C272.972107,720.486779 272.836037,719.940156 272.836037,719.302028 C272.836037,718.269762 273.270051,717.455692 274.138093,716.859793 C275.006135,716.263895 276.195568,715.96595 277.70643,715.96595 C279.217291,715.96595 280.648365,716.24278 281.999695,716.79645 L281.521101,717.936629 C280.160388,717.382959 278.912303,717.106128 277.776811,717.106128 C276.641319,717.106128 275.745138,717.291464 275.088242,717.662141 C274.431346,718.032819 274.102902,718.56302 274.102902,719.252761 C274.102902,719.942502 274.360965,720.503202 274.877098,720.934876 C275.39323,721.366551 276.324602,721.824025 277.671239,722.307313 C279.017877,722.790601 279.982092,723.215232 280.563914,723.581217 Z" id="Larapress"></path>
        </g>
    </g>
</svg>