<?xml version="1.0" encoding="UTF-8"?>
<svg width="52px" height="52px" viewBox="0 0 52 52" version="1.1" xmlns="http://www.w3.org/2000/svg" xmlns:xlink="http://www.w3.org/1999/xlink">
    <!-- Generator: Sketch 52.1 (67048) - http://www.bohemiancoding.com/sketch -->
    <title>Group 3</title>
    <desc>Created with Sketch.</desc>
    <g id="Page-1" stroke="none" stroke-width="1" fill="none" fill-rule="evenodd">
        <g id="Home" transform="translate(-615.000000, -1640.000000)">
            <g id="Footer" transform="translate(0.000000, 1574.000000)">
                <g id="Group-3" transform="translate(615.000000, 66.000000)">
                    <circle id="Oval" fill="#2D2D2D" cx="26" cy="26" r="26"></circle>
                    <g id="iconmonstr-twitter-1" transform="translate(13.520000, 16.640000)" fill="#FFFFFF">
                        <path d="M26,2.50141667 C25.0434167,2.92608333 24.0153333,3.21208333 22.9363333,3.341 C24.0380833,2.68125 24.8841667,1.63583333 25.28175,0.39 C24.2515,1.001 23.1096667,1.44516667 21.8941667,1.68458333 C20.9224167,0.647833333 19.5346667,0 18.0006667,0 C14.55675,0 12.0260833,3.21316667 12.8039167,6.54875 C8.372,6.32666667 4.44166667,4.20333333 1.81025,0.976083333 C0.41275,3.3735 1.0855,6.50975 3.46016667,8.09791667 C2.587,8.06975 1.76366667,7.83033333 1.04541667,7.43058333 C0.986916667,9.90166667 2.75816667,12.2135 5.3235,12.7280833 C4.57275,12.93175 3.7505,12.9794167 2.91416667,12.8190833 C3.59233333,14.9380833 5.56183333,16.4796667 7.8975,16.523 C5.655,18.28125 2.82966667,19.0666667 0,18.733 C2.36058333,20.2464167 5.16533333,21.1293333 8.177,21.1293333 C18.0808333,21.1293333 23.67625,12.7649167 23.33825,5.26283333 C24.3804167,4.50991667 25.285,3.57066667 26,2.50141667 Z" id="Path"></path>
                    </g>
                </g>
            </g>
        </g>
    </g>
</svg>