<?xml version="1.0" encoding="UTF-8"?>
<svg width="122px" height="28px" viewBox="0 0 122 28" version="1.1" xmlns="http://www.w3.org/2000/svg" xmlns:xlink="http://www.w3.org/1999/xlink">
    <!-- Generator: Sketch 52.1 (67048) - http://www.bohemiancoding.com/sketch -->
    <title>Larapress</title>
    <desc>Created with Sketch.</desc>
    <defs>
        <filter x="-0.3%" y="-6.3%" width="100.6%" height="112.7%" filterUnits="objectBoundingBox" id="filter-1">
            <feOffset dx="0" dy="1" in="SourceAlpha" result="shadowOffsetOuter1"></feOffset>
            <feGaussianBlur stdDeviation="0.5" in="shadowOffsetOuter1" result="shadowBlurOuter1"></feGaussianBlur>
            <feColorMatrix values="0 0 0 0 0   0 0 0 0 0   0 0 0 0 0  0 0 0 0.5 0" type="matrix" in="shadowBlurOuter1" result="shadowMatrixOuter1"></feColorMatrix>
            <feMerge>
                <feMergeNode in="shadowMatrixOuter1"></feMergeNode>
                <feMergeNode in="SourceGraphic"></feMergeNode>
            </feMerge>
        </filter>
    </defs>
    <g id="Page-1" stroke="none" stroke-width="1" fill="none" fill-rule="evenodd">
        <g id="Home" transform="translate(-251.000000, -19.000000)" fill="#FFFFFF">
            <g id="Navigation" filter="url(#filter-1)">
                <path d="M264.132584,38 L251.998832,38 L251.998832,19.4756167 L257.009987,19.4756167 L257.009987,33.9601079 L264.132584,33.9601079 L264.132584,38 Z M279.602415,38 L276.181879,38 L275.224692,36.0997023 L275.126158,36.0997023 C274.478646,36.9161306 273.800645,37.4791761 273.092136,37.7888558 C272.383626,38.0985355 271.485099,38.253373 270.396528,38.253373 C269.035815,38.253373 267.97072,37.845165 267.201213,37.0287367 C266.431706,36.2123085 266.046958,35.0768333 266.046958,33.6222772 C266.046958,30.6756281 268.11615,29.1178688 272.254597,28.9489526 L274.661641,28.8644949 L274.661641,28.667427 C274.661641,27.4850136 274.075135,26.8938158 272.902106,26.8938158 C271.86984,26.8938158 270.541991,27.2457193 268.918519,27.9495367 L267.482739,24.68384 C269.162516,23.8204906 271.273937,23.3888223 273.817064,23.3888223 C275.656374,23.3888223 277.08041,23.8486428 278.089215,24.7682977 C279.09802,25.6879525 279.602415,26.959497 279.602415,28.5829693 L279.602415,38 Z M271.100342,33.4392856 C271.100342,34.3214035 271.569547,34.7624558 272.50797,34.7624558 C273.108561,34.7624558 273.619994,34.574774 274.042285,34.1994047 C274.464575,33.8240353 274.675717,33.3266784 274.675717,32.7073191 L274.675717,31.595293 L273.535539,31.6375219 C271.912066,31.7125957 271.100342,32.3131776 271.100342,33.4392856 Z M291.637633,23.3888223 C291.956697,23.3888223 292.458746,23.4404348 293.143795,23.5436614 L292.707431,28.216986 C292.275756,28.1137595 291.71271,28.062147 291.018277,28.062147 C288.953746,28.062147 287.921496,29.0240164 287.921496,30.9477842 L287.921496,38 L282.966646,38 L282.966646,23.6421953 L286.654631,23.6421953 L287.428826,25.9366288 L287.668123,25.9366288 C288.081029,25.1671217 288.660497,24.5501177 289.406543,24.0855981 C290.15259,23.6210786 290.896279,23.3888223 291.637633,23.3888223 Z M307.417142,38 L303.996607,38 L303.03942,36.0997023 L302.940886,36.0997023 C302.293374,36.9161306 301.615373,37.4791761 300.906863,37.7888558 C300.198354,38.0985355 299.299827,38.253373 298.211256,38.253373 C296.850542,38.253373 295.785448,37.845165 295.01594,37.0287367 C294.246433,36.2123085 293.861686,35.0768333 293.861686,33.6222772 C293.861686,30.6756281 295.930878,29.1178688 300.069325,28.9489526 L302.476368,28.8644949 L302.476368,28.667427 C302.476368,27.4850136 301.889863,26.8938158 300.716833,26.8938158 C299.684568,26.8938158 298.356719,27.2457193 296.733247,27.9495367 L295.297466,24.68384 C296.977244,23.8204906 299.088664,23.3888223 301.631792,23.3888223 C303.471101,23.3888223 304.895137,23.8486428 305.903942,24.7682977 C306.912747,25.6879525 307.417142,26.959497 307.417142,28.5829693 L307.417142,38 Z M298.91507,33.4392856 C298.91507,34.3214035 299.384274,34.7624558 300.322698,34.7624558 C300.923289,34.7624558 301.434722,34.574774 301.857012,34.1994047 C302.279303,33.8240353 302.490445,33.3266784 302.490445,32.7073191 L302.490445,31.595293 L301.350266,31.6375219 C299.726794,31.7125957 298.91507,32.3131776 298.91507,33.4392856 Z M317.270538,38.253373 C315.149701,38.253373 313.606018,37.4604172 312.639442,35.8744819 L312.554984,35.8744819 L312.583137,36.9302028 C312.620674,37.4932568 312.639442,38.1782955 312.639442,38.9853395 L312.639442,44.2357916 L311.386653,44.2357916 L311.386653,24.2333991 L312.442374,24.2333991 L312.681671,26.1900019 L312.766128,26.1900019 C313.713936,24.7072931 315.224775,23.9659498 317.29869,23.9659498 C319.156768,23.9659498 320.573766,24.5759158 321.549727,25.795866 C322.525687,27.0158163 323.01366,28.7729876 323.01366,31.0674326 C323.01366,33.3618775 322.497534,35.137817 321.465269,36.3953042 C320.433003,37.6340229 319.034773,38.253373 317.270538,38.253373 Z M317.242385,37.141347 C318.65002,37.141347 319.740921,36.6181838 320.51512,35.5718419 C321.289319,34.5254999 321.676413,33.0592355 321.676413,31.1730047 C321.676413,27.1284002 320.217187,25.1061284 317.29869,25.1061284 C315.684602,25.1061284 314.504553,25.5495267 313.758506,26.4363367 C313.01246,27.3231468 312.639442,28.7565668 312.639442,30.73664 L312.639442,31.1448521 C312.639442,33.3032257 313.000729,34.8422168 313.723315,35.7618716 C314.445901,36.6815265 315.618913,37.141347 317.242385,37.141347 Z M332.247699,23.9659498 C332.838905,23.9659498 333.462947,24.0222543 334.119844,24.1348651 L333.880547,25.3454251 C333.308109,25.2046616 332.712219,25.1342809 332.09286,25.1342809 C330.910446,25.1342809 329.946231,25.6339838 329.200184,26.6334047 C328.454138,27.6328255 328.08112,28.8879478 328.08112,30.3988093 L328.08112,38 L326.828331,38 L326.828331,24.2333991 L327.884052,24.2333991 L328.010739,26.7108242 L328.109273,26.7108242 C328.662942,25.7067113 329.263524,24.9982123 329.911036,24.585306 C330.567933,24.1723998 331.346812,23.9659498 332.247699,23.9659498 Z M345.507553,30.1735888 C345.507553,28.5876535 345.162688,27.3419152 344.472947,26.4363367 C343.783206,25.5307583 342.79553,25.0779758 341.50989,25.0779758 C340.22425,25.0779758 339.182616,25.5166821 338.384956,26.3941079 C337.587296,27.2715337 337.122784,28.5313481 336.991405,30.1735888 L345.507553,30.1735888 Z M341.960331,38.253373 C339.96149,38.253373 338.399038,37.638715 337.27293,36.4093805 C336.156207,35.1612775 335.597853,33.4346045 335.597853,31.2293098 C335.597853,29.024015 336.139784,27.2621517 337.223663,25.943667 C338.307542,24.6251822 339.764422,23.9659498 341.594348,23.9659498 C343.21782,23.9659498 344.494057,24.5336873 345.423096,25.6691795 C346.361519,26.7859033 346.830724,28.3202023 346.830724,30.2721228 L346.830724,31.2856149 L336.921023,31.2856149 C336.930407,33.1718457 337.369114,34.6146499 338.237155,35.6140707 C339.105197,36.6134915 340.346243,37.1131944 341.960331,37.1131944 C342.720454,37.1131944 343.405493,37.0592359 344.015468,36.9513172 C344.625443,36.8433985 345.385555,36.6064502 346.295825,36.2404651 L346.295825,37.3806437 C345.545086,37.7090919 344.836588,37.9366561 344.170307,38.0633433 C343.504026,38.1900304 342.767375,38.253373 341.960331,38.253373 Z M357.472391,31.5812167 C358.607883,32.2944184 359.17562,33.2539419 359.17562,34.4598158 C359.17562,35.6656898 358.708762,36.5994069 357.775031,37.2609953 C356.8413,37.9225838 355.485298,38.253373 353.706986,38.253373 C351.928674,38.253373 350.495254,37.9718503 349.406683,37.4087963 L349.406683,36.0433972 C350.795549,36.7378304 352.205509,37.0850419 353.636605,37.0850419 C355.0677,37.0850419 356.142179,36.8645157 356.860073,36.4234567 C357.577966,35.9823978 357.936908,35.393546 357.936908,34.6568837 C357.936908,33.9202214 357.655385,33.3219856 357.092331,32.8621581 C356.529277,32.3835623 355.593214,31.9120116 354.284113,31.4474921 C352.975013,30.9829726 352.02722,30.5630344 351.440705,30.1876651 C350.854191,29.8122958 350.424868,29.3970497 350.152726,28.9419144 C349.880583,28.4867791 349.744513,27.9401557 349.744513,27.3020279 C349.744513,26.2697623 350.178528,25.4556923 351.046569,24.8597935 C351.914611,24.2638947 353.104045,23.9659498 354.614906,23.9659498 C356.125768,23.9659498 357.556842,24.2427805 358.908171,24.7964502 L358.429578,25.9366288 C357.068864,25.3829591 355.82078,25.1061284 354.685287,25.1061284 C353.549795,25.1061284 352.653614,25.2914642 351.996718,25.6621414 C351.339822,26.0328186 351.011379,26.5630198 351.011379,27.2527609 C351.011379,27.9425021 351.269441,28.5032016 351.785574,28.9348763 C352.301707,29.366551 353.233078,29.8240255 354.579715,30.3073135 C355.926353,30.7906015 356.890568,31.2152317 357.472391,31.5812167 Z M369.563914,31.5812167 C370.699407,32.2944184 371.267144,33.2539419 371.267144,34.4598158 C371.267144,35.6656898 370.800286,36.5994069 369.866554,37.2609953 C368.932823,37.9225838 367.576822,38.253373 365.79851,38.253373 C364.020198,38.253373 362.586778,37.9718503 361.498207,37.4087963 L361.498207,36.0433972 C362.887073,36.7378304 364.297033,37.0850419 365.728128,37.0850419 C367.159224,37.0850419 368.233702,36.8645157 368.951596,36.4234567 C369.66949,35.9823978 370.028432,35.393546 370.028432,34.6568837 C370.028432,33.9202214 369.746909,33.3219856 369.183855,32.8621581 C368.620801,32.3835623 367.684738,31.9120116 366.375637,31.4474921 C365.066537,30.9829726 364.118743,30.5630344 363.532229,30.1876651 C362.945714,29.8122958 362.516392,29.3970497 362.244249,28.9419144 C361.972107,28.4867791 361.836037,27.9401557 361.836037,27.3020279 C361.836037,26.2697623 362.270051,25.4556923 363.138093,24.8597935 C364.006135,24.2638947 365.195568,23.9659498 366.70643,23.9659498 C368.217291,23.9659498 369.648365,24.2427805 370.999695,24.7964502 L370.521101,25.9366288 C369.160388,25.3829591 367.912303,25.1061284 366.776811,25.1061284 C365.641319,25.1061284 364.745138,25.2914642 364.088242,25.6621414 C363.431346,26.0328186 363.102902,26.5630198 363.102902,27.2527609 C363.102902,27.9425021 363.360965,28.5032016 363.877098,28.9348763 C364.39323,29.366551 365.324602,29.8240255 366.671239,30.3073135 C368.017877,30.7906015 368.982092,31.2152317 369.563914,31.5812167 Z" id="Larapress"></path>
            </g>
        </g>
    </g>
</svg>